<svg id="Layer_1" data-name="Layer 1" xmlns="http://www.w3.org/2000/svg" viewBox="0 0 285.33 72.01"><defs><style>.cls-1{fill:#fff;}</style></defs><title>logo-white</title><path class="cls-1" d="M385.26,196a13.27,13.27,0,0,0-.47,3.81c-.15,1.56-.45,3-1.85,3.95a2.83,2.83,0,0,1-3.15.31,2.5,2.5,0,0,1-1.13-2.78c1.25-10.62-.6-20.48-7.42-29-6.1-7.64-14.21-11.73-23.88-12.87a47.27,47.27,0,0,0-10.16,0c-2.26.22-3.31-.36-3.52-1.86a3.56,3.56,0,0,1,2.92-3.91c1.57-.27,3.17-.33,4.76-.49h4.82c1.51.16,3,.27,4.52.48a39.37,39.37,0,0,1,34.13,36,8.61,8.61,0,0,0,.42,3.22C385.26,193.89,385.26,194.93,385.26,196Z" transform="translate(-99.93 -152.93)"/><path class="cls-1" d="M346.18,152.93a.74.74,0,0,0,0,.21h-4.82a.69.69,0,0,0,0-.2Z" transform="translate(-99.93 -152.93)"/><path class="cls-1" d="M302.77,203.4c4.31-4.37,12.62-4.22,16,.71a11.63,11.63,0,0,1,10.85-3.71c4.88.71,7.69,3.85,7.89,9,.19,4.77,0,9.56.08,14.34,0,.53-.18.68-.69.67-1.36,0-2.72-.06-4.07,0-.79,0-.91-.28-.91-1,0-3.71,0-7.41,0-11.12,0-.72,0-1.43-.08-2.15-.22-2.66-1.62-4.44-3.81-4.89a6,6,0,0,0-6.79,2.82,8.79,8.79,0,0,0-.93,4.15c0,3.67,0,7.33,0,11,0,1-.29,1.21-1.2,1.15a21.77,21.77,0,0,0-3.23,0c-1,.08-1.29-.19-1.27-1.22.07-3.62,0-7.25,0-10.88,0-.6,0-1.2-.05-1.79-.22-3.21-1.74-5-4.45-5.31-3.41-.36-5.81,1.14-6.73,4.22a10.14,10.14,0,0,0-.39,2.95c0,3.67,0,7.33,0,11,0,.86-.25,1.08-1.07,1-1.23-.07-2.48,0-3.71,0-.65,0-.9-.14-.9-.85q0-11.12,0-22.23c0-.7.23-.88.9-.86,1.24,0,2.48,0,3.72,0,.63,0,.86.17.81.81S302.77,202.57,302.77,203.4Z" transform="translate(-99.93 -152.93)"/><path class="cls-1" d="M186.63,224.9a21.59,21.59,0,0,1-10.9-3.05c-.73-.46-1-.87-.52-1.7.57-1,.73-2.65,1.56-3.12s1.94.95,3,1.39a17.47,17.47,0,0,0,10.87,1.24,5.54,5.54,0,0,0,2.06-.91,3.18,3.18,0,0,0-.08-5.41,15.78,15.78,0,0,0-5-1.82,49.34,49.34,0,0,1-6.54-1.88c-3.3-1.35-5.48-3.54-5.57-7.29a8.15,8.15,0,0,1,5.22-8.24c5.82-2.48,11.6-1.91,17.23.85.62.3.66.64.39,1.23a25.24,25.24,0,0,0-1.11,2.76c-.26.77-.53.94-1.33.52a16.07,16.07,0,0,0-9.95-1.85,6.67,6.67,0,0,0-3.11,1.14,3.3,3.3,0,0,0,.24,5.74,17.83,17.83,0,0,0,5.08,1.72,41.41,41.41,0,0,1,6.53,1.92c3,1.32,5.1,3.4,5.25,6.89a8.28,8.28,0,0,1-4.68,8.11C192.73,224.53,190,224.9,186.63,224.9Z" transform="translate(-99.93 -152.93)"/><path class="cls-1" d="M338.79,169.84c8.35.1,16.16,2.71,22.22,9.44,4.74,5.26,6.82,11.59,7.21,18.55a33.66,33.66,0,0,1-.17,5.85,3.65,3.65,0,0,1-1.5,2.61,2.91,2.91,0,0,1-3.25.42c-1.17-.6-1.33-1.69-1.2-2.88a28.75,28.75,0,0,0-1-11.11,23,23,0,0,0-19.75-16.6,37.91,37.91,0,0,0-7.53-.11,2.44,2.44,0,0,1-2.61-3.52,3.63,3.63,0,0,1,2.9-2.4A36.31,36.31,0,0,1,338.79,169.84Z" transform="translate(-99.93 -152.93)"/><path class="cls-1" d="M256,214.27h-8.27c-1.26,0-1.32.08-.84,1.28a7.06,7.06,0,0,0,6.37,4.52,8.52,8.52,0,0,0,7-2.12c.42-.39.66-.43,1,.05.5.67,1.07,1.28,1.62,1.92,1,1.17,1,1.18-.19,2.19-2.95,2.48-6.45,3-10.13,2.74-5.79-.46-10.07-3.85-11.28-9.08-1.17-5-.14-9.61,4.11-12.87s9.15-3.54,14-1.15c4.16,2.06,6.57,7.13,6,11.87-.09.77-.54.64-1,.64Zm-2.63-3.72c2,0,4,0,6,0,.58,0,.73-.11.59-.74a6.47,6.47,0,0,0-6.42-5,6.62,6.62,0,0,0-6.85,4.82c-.17.68-.12,1,.73,1C249.42,210.51,251.42,210.55,253.41,210.55Z" transform="translate(-99.93 -152.93)"/><path class="cls-1" d="M284.78,221.9a11.36,11.36,0,0,1-13.1,1.66,6.55,6.55,0,0,1-3.38-6.63,6.22,6.22,0,0,1,4.33-5.62,16.59,16.59,0,0,1,5.89-.88c1.64,0,3.28-.05,4.91,0,.9,0,1.06-.3,1-1.12a4.61,4.61,0,0,0-4.41-4.26,11.92,11.92,0,0,0-8.13,1.78c-.64.42-.84.24-1.12-.32a23.48,23.48,0,0,0-1.36-2.52c-.4-.62-.28-.93.32-1.3a17.18,17.18,0,0,1,7.94-2.39,16.91,16.91,0,0,1,6.05.54,8.39,8.39,0,0,1,6.34,8.32c.16,4.86.05,9.72.07,14.58,0,.52-.16.69-.68.68-1.2,0-2.4-.06-3.59,0-.84.05-1.17-.19-1.05-1A14.81,14.81,0,0,0,284.78,221.9Zm-4.23-7.77a20.68,20.68,0,0,0-4.08.22,3,3,0,0,0-2.68,2.76,3.06,3.06,0,0,0,2.22,3.28,7,7,0,0,0,6.49-.84c1.76-1.18,2.16-2.92,2-4.91,0-.53-.34-.53-.72-.53C282.74,214.14,281.74,214.13,280.55,214.13Z" transform="translate(-99.93 -152.93)"/><path class="cls-1" d="M122.6,203.41c0-3.07,0-6.13,0-9.2,0-.85.15-1.18,1.1-1.15,2.17.06,2.17,0,2.17,2.18,0,5.3,0,10.59,0,15.89a19.31,19.31,0,0,1-.56,4.73c-1.33,5.25-5.27,8.4-10.9,8.75a18,18,0,0,1-5.12-.32,11.22,11.22,0,0,1-9.07-10,26.66,26.66,0,0,1-.25-3.57c0-5.54,0-11.07,0-16.61,0-.82.18-1.08,1-1.06,2.34,0,2.34,0,2.34,2.37,0,5.06,0,10.11,0,15.17a18.59,18.59,0,0,0,.33,3.8c1,4.89,4.23,7.35,9.46,7.25,5.81-.11,9.13-3.24,9.39-9.06.14-3.06,0-6.13,0-9.2A.14.14,0,0,0,122.6,203.41Z" transform="translate(-99.93 -152.93)"/><path class="cls-1" d="M211.68,211.61v4.66c0,3.46,2.36,5,5.5,3.54,1-.46,1.19-.19,1.44.62a9.83,9.83,0,0,0,.75,1.88c.48.87.12,1.29-.66,1.63a10.38,10.38,0,0,1-9-.06,6.33,6.33,0,0,1-3.52-5.6c-.3-3.93-.11-7.88-.1-11.82,0-1-.28-1.25-1.27-1.23-2.71.06-2.71,0-2.71-2.69,0-1.79,0-1.79,1.82-1.79,2.12,0,2.1,0,2.14-2.1,0-1.1-.5-2.57.23-3.2s2.06-.17,3.13-.18c2.27,0,2.26,0,2.28,2.3,0,1-.44,2.36.18,3s2,.12,3,.2,2.47-.47,3.08.24.09,2,.2,3-.26,1.37-1.31,1.3c-1.43-.1-2.87,0-4.31,0-.7,0-.87.22-.86.88C211.71,208,211.68,209.78,211.68,211.61Z" transform="translate(-99.93 -152.93)"/><path class="cls-1" d="M332.78,192.92l-.46,0c-2.13.14-3.28-.53-3.44-2a3.64,3.64,0,0,1,2.9-3.82,16,16,0,0,1,18.72,12.54,18,18,0,0,1,.31,6.17,3.58,3.58,0,0,1-2.24,2.88,2.5,2.5,0,0,1-3.69-2.6,14.27,14.27,0,0,0-.46-5,10.43,10.43,0,0,0-9.46-8C334.11,193,333.28,193,332.78,192.92Z" transform="translate(-99.93 -152.93)"/><path class="cls-1" d="M138.42,205.06c3-3.81,6.74-4.78,11-4.14,4.55.69,7.41,3.76,7.57,8.34.17,4.81.06,9.64.09,14.46,0,.49-.13.67-.66.71-2.5.17-2.5.19-2.5-2.33,0-3.59,0-7.17,0-10.76a11.79,11.79,0,0,0-.33-3c-.91-3.47-4-5.27-8-4.7-4.32.61-6.86,3.43-6.95,7.89-.08,3.9-.05,7.81,0,11.71,0,.82-.08,1.19-1.07,1.16-2.11-.08-2.11,0-2.11-2.14,0-6.65,0-13.31,0-20,0-1.2.35-1.56,1.46-1.37a1.29,1.29,0,0,0,.48,0c.86-.14,1.23.14,1.14,1.08S138.42,203.84,138.42,205.06Z" transform="translate(-99.93 -152.93)"/><path class="cls-1" d="M229.89,203.84a9.73,9.73,0,0,1,7.66-3.58c.67,0,.92.15.89.85-.05,1.23,0,2.47,0,3.7,0,.57-.17.76-.76.72a9.09,9.09,0,0,0-2.15.08c-3.37.59-5.3,3-5.36,6.73s0,7.33,0,11c0,.91-.23,1.16-1.12,1.1-1.23-.08-2.48,0-3.71,0-.59,0-.85-.11-.85-.78q0-11.17,0-22.35c0-.62.18-.84.81-.81,1.28,0,2.56.05,3.83,0,.68,0,.8.27.77.85S229.89,202.77,229.89,203.84Z" transform="translate(-99.93 -152.93)"/><path class="cls-1" d="M165.85,212.7c0-3.58,0-7.17,0-10.75,0-.8.23-1,1-1,2.17,0,2.17,0,2.17,2.18,0,6.73,0,13.46,0,20.19,0,.9-.23,1.13-1.12,1.1-2.06-.06-2.06,0-2.06-2.06C165.85,219.15,165.85,215.93,165.85,212.7Z" transform="translate(-99.93 -152.93)"/><path class="cls-1" d="M169.73,193.44a2.3,2.3,0,0,1-2.39,2.28,2.27,2.27,0,1,1,.11-4.54A2.26,2.26,0,0,1,169.73,193.44Z" transform="translate(-99.93 -152.93)"/></svg>