<?xml version="1.0" encoding="utf-8"?>
<!-- Generator: Adobe Illustrator 24.0.2, SVG Export Plug-In . SVG Version: 6.00 Build 0)  -->
<svg version="1.1" id="Layer_1" xmlns="http://www.w3.org/2000/svg" xmlns:xlink="http://www.w3.org/1999/xlink" x="0px" y="0px"
	 viewBox="0 0 285.4 72" style="enable-background:new 0 0 285.4 72;" xml:space="preserve">
<style type="text/css">
	.st0{fill:#384168;}
	.st1{fill:#C6C9D3;}
	.st2{fill:#394369;}
	.st3{fill:#384268;}
	.st4{fill:#3A4369;}
	.st5{fill:#374168;}
	.st6{fill:#3A446A;}
	.st7{fill:#364067;}
</style>
<title>logo</title>
<path class="st0" d="M285.3,43.1c-0.3,1.2-0.5,2.5-0.5,3.8c-0.1,1.6-0.5,3-1.9,3.9c-0.9,0.7-2.1,0.9-3.1,0.3c-1-0.6-1.4-1.7-1.1-2.8
	c1.2-10.6-0.6-20.5-7.4-29c-6.1-7.6-14.2-11.7-23.9-12.9c-3.4-0.4-6.8-0.4-10.2,0c-2.3,0.2-3.3-0.4-3.5-1.9
	c-0.2-1.9,1.1-3.6,2.9-3.9c1.6-0.3,3.2-0.3,4.8-0.5h4.8c1.5,0.2,3,0.3,4.5,0.5c18.5,2.4,32.7,17.4,34.1,36c-0.1,1.1,0.1,2.2,0.4,3.2
	C285.3,41,285.3,42,285.3,43.1z"/>
<path class="st1" d="M246.2,0c0,0.1,0,0.1,0,0.2h-4.8c0-0.1,0-0.1,0-0.2L246.2,0z"/>
<path class="st2" d="M202.8,50.5c4.3-4.4,12.6-4.2,16,0.7c2.7-3.1,6.8-4.5,10.9-3.7c4.9,0.7,7.7,3.9,7.9,9c0.2,4.8,0,9.6,0.1,14.3
	c0,0.5-0.2,0.7-0.7,0.7c-1.4,0-2.7-0.1-4.1,0c-0.8,0-0.9-0.3-0.9-1c0-3.7,0-7.4,0-11.1c0-0.7,0-1.4-0.1-2.1
	c-0.2-2.7-1.6-4.4-3.8-4.9c-2.6-0.7-5.4,0.4-6.8,2.8c-0.6,1.3-1,2.7-0.9,4.1c0,3.7,0,7.3,0,11c0,1-0.3,1.2-1.2,1.1
	c-1.1-0.1-2.2-0.1-3.2,0c-1,0.1-1.3-0.2-1.3-1.2c0.1-3.6,0-7.2,0-10.9c0-0.6,0-1.2,0-1.8c-0.2-3.2-1.7-5-4.5-5.3
	c-3.4-0.4-5.8,1.1-6.7,4.2c-0.3,1-0.4,2-0.4,2.9c0,3.7,0,7.3,0,11c0,0.9-0.2,1.1-1.1,1c-1.2-0.1-2.5,0-3.7,0c-0.6,0-0.9-0.1-0.9-0.9
	c0-7.4,0-14.8,0-22.2c0-0.7,0.2-0.9,0.9-0.9c1.2,0,2.5,0,3.7,0c0.6,0,0.9,0.2,0.8,0.8S202.8,49.7,202.8,50.5z"/>
<path class="st3" d="M86.7,72c-3.8,0-7.6-1.1-10.9-3.1c-0.7-0.5-1-0.9-0.5-1.7c0.6-1,0.7-2.6,1.6-3.1s1.9,0.9,3,1.4
	c3.4,1.6,7.2,2,10.9,1.2c0.7-0.2,1.4-0.5,2.1-0.9c1.5-0.9,1.9-2.9,1-4.4c-0.3-0.4-0.6-0.8-1-1c-1.6-0.9-3.2-1.5-5-1.8
	c-2.2-0.5-4.4-1.1-6.5-1.9c-3.3-1.4-5.5-3.5-5.6-7.3c-0.3-3.6,1.8-7,5.2-8.2c5.8-2.5,11.6-1.9,17.2,0.9c0.6,0.3,0.7,0.6,0.4,1.2
	c-0.4,0.9-0.8,1.8-1.1,2.8C97,46.8,96.8,47,96,46.6c-3-1.7-6.5-2.3-9.9-1.9c-1.1,0.1-2.2,0.5-3.1,1.1c-1.5,1-2,3-1.1,4.5
	c0.3,0.5,0.8,0.9,1.3,1.2c1.6,0.8,3.3,1.4,5.1,1.7c2.2,0.5,4.4,1.1,6.5,1.9c3,1.3,5.1,3.4,5.2,6.9c0.3,3.4-1.6,6.6-4.7,8.1
	C92.8,71.6,90.1,72,86.7,72z"/>
<path class="st0" d="M238.9,16.9c8.4,0.1,16.2,2.7,22.2,9.4c4.7,5.3,6.8,11.6,7.2,18.6c0.1,2,0.1,3.9-0.2,5.9c-0.1,1-0.6,2-1.5,2.6
	c-0.9,0.8-2.2,1-3.2,0.4c-1.2-0.6-1.3-1.7-1.2-2.9c0.4-3.7,0.1-7.5-1-11.1c-2.6-9.1-10.4-15.6-19.8-16.6c-2.5-0.3-5-0.3-7.5-0.1
	c-1.3,0.2-2.6-0.6-2.8-2c-0.1-0.5,0-1.1,0.2-1.6c0.4-1.3,1.6-2.2,2.9-2.4C235.7,17,237.3,16.9,238.9,16.9z"/>
<path class="st2" d="M156.1,61.4h-8.3c-1.3,0-1.3,0.1-0.8,1.3c1,2.7,3.5,4.4,6.4,4.5c2.5,0.4,5.1-0.4,7-2.1c0.4-0.4,0.7-0.4,1,0.1
	c0.5,0.7,1.1,1.3,1.6,1.9c1,1.2,1,1.2-0.2,2.2c-3,2.5-6.5,3-10.1,2.7c-5.8-0.5-10.1-3.9-11.3-9.1c-1.2-5-0.1-9.6,4.1-12.9
	s9.1-3.5,14-1.1c4.2,2.1,6.6,7.1,6,11.9c-0.1,0.8-0.5,0.6-1,0.6L156.1,61.4z M153.4,57.6c2,0,4,0,6,0c0.6,0,0.7-0.1,0.6-0.7
	c-0.7-3-3.4-5.1-6.4-5c-3.1-0.2-6,1.8-6.9,4.8c-0.2,0.7-0.1,1,0.7,1C149.5,57.6,151.5,57.6,153.4,57.6L153.4,57.6z"/>
<path class="st3" d="M184.9,69c-3.6,3.3-8.8,4-13.1,1.7c-2.4-1.3-3.7-3.9-3.4-6.6c0.1-2.6,1.9-4.8,4.3-5.6c1.9-0.6,3.9-0.9,5.9-0.9
	c1.6,0,3.3-0.1,4.9,0c0.9,0,1.1-0.3,1-1.1c-0.2-2.3-2.1-4.2-4.4-4.3c-2.8-0.4-5.7,0.2-8.1,1.8c-0.6,0.4-0.8,0.2-1.1-0.3
	c-0.4-0.9-0.9-1.7-1.4-2.5c-0.4-0.6-0.3-0.9,0.3-1.3c2.4-1.4,5.1-2.3,7.9-2.4c2-0.2,4.1,0,6,0.5c3.8,1,6.4,4.4,6.3,8.3
	c0.2,4.9,0,9.7,0.1,14.6c0,0.5-0.2,0.7-0.7,0.7c-1.2,0-2.4-0.1-3.6,0c-0.8,0.1-1.2-0.2-1-1C184.9,70,184.9,69.5,184.9,69z
	 M180.6,61.2c-1.4-0.1-2.7,0-4.1,0.2c-1.4,0.2-2.6,1.3-2.7,2.8c-0.2,1.5,0.8,2.9,2.2,3.3c2.2,0.8,4.6,0.5,6.5-0.8
	c1.8-1.2,2.2-2.9,2-4.9c0-0.5-0.3-0.5-0.7-0.5C182.8,61.2,181.8,61.2,180.6,61.2L180.6,61.2z"/>
<path class="st4" d="M22.7,50.5c0-3.1,0-6.1,0-9.2c0-0.9,0.2-1.2,1.1-1.1c2.2,0.1,2.2,0,2.2,2.2c0,5.3,0,10.6,0,15.9
	c0,1.6-0.2,3.2-0.6,4.7c-1.3,5.2-5.3,8.4-10.9,8.8c-1.7,0.1-3.4,0-5.1-0.3c-4.9-0.9-8.6-5-9.1-10C0.1,60.2,0,59,0,57.8
	c0-5.5,0-11.1,0-16.6c0-0.8,0.2-1.1,1-1.1c2.3,0,2.3,0,2.3,2.4c0,5.1,0,10.1,0,15.2c0,1.3,0.1,2.5,0.3,3.8c1,4.9,4.2,7.4,9.5,7.2
	c5.8-0.1,9.1-3.2,9.4-9.1c0.1-3.1,0-6.1,0-9.2C22.6,50.5,22.6,50.5,22.7,50.5z"/>
<path class="st2" d="M111.7,58.7v4.7c0,3.5,2.4,5,5.5,3.5c1-0.5,1.2-0.2,1.4,0.6c0.2,0.7,0.4,1.3,0.8,1.9c0.5,0.9,0.1,1.3-0.7,1.6
	c-2.9,1.3-6.2,1.3-9-0.1c-2.1-1.1-3.5-3.2-3.5-5.6c-0.3-3.9-0.1-7.9-0.1-11.8c0-1-0.3-1.2-1.3-1.2c-2.7,0.1-2.7,0-2.7-2.7
	c0-1.8,0-1.8,1.8-1.8c2.1,0,2.1,0,2.1-2.1c0-1.1-0.5-2.6,0.2-3.2s2.1-0.2,3.1-0.2c2.3,0,2.3,0,2.3,2.3c0,1-0.4,2.4,0.2,3
	s2,0.1,3,0.2s2.5-0.5,3.1,0.2s0.1,2,0.2,3s-0.3,1.4-1.3,1.3c-1.4-0.1-2.9,0-4.3,0c-0.7,0-0.9,0.2-0.9,0.9
	C111.8,55.1,111.7,56.9,111.7,58.7z"/>
<path class="st3" d="M232.9,40h-0.5c-2.1,0.1-3.3-0.5-3.4-2c-0.1-1.8,1.1-3.5,2.9-3.8c8.6-1.7,17,3.9,18.7,12.5
	c0.5,2,0.6,4.1,0.3,6.2c-0.2,1.3-1,2.4-2.2,2.9c-1.2,0.7-2.7,0.3-3.4-1c-0.3-0.5-0.4-1.1-0.3-1.6c0.1-1.7,0-3.4-0.5-5
	c-1.1-4.5-4.9-7.7-9.5-8C234.2,40.1,233.4,40.1,232.9,40z"/>
<path class="st5" d="M38.5,52.1c3-3.8,6.7-4.8,11-4.1c4.6,0.7,7.4,3.8,7.6,8.3c0.2,4.8,0.1,9.6,0.1,14.5c0,0.5-0.1,0.7-0.7,0.7
	C54,71.7,54,71.7,54,69.2c0-3.6,0-7.2,0-10.8c0-1-0.1-2-0.3-3c-0.9-3.5-4-5.3-8-4.7c-4.3,0.6-6.9,3.4-6.9,7.9
	c-0.1,3.9-0.1,7.8,0,11.7c0,0.8-0.1,1.2-1.1,1.2c-2.1-0.1-2.1,0-2.1-2.1c0-6.6,0-13.3,0-20c0-1.2,0.4-1.6,1.5-1.4c0.2,0,0.3,0,0.5,0
	c0.9-0.1,1.2,0.1,1.1,1.1S38.5,50.9,38.5,52.1z"/>
<path class="st6" d="M130,50.9c1.9-2.3,4.7-3.6,7.7-3.6c0.7,0,0.9,0.1,0.9,0.9c-0.1,1.2,0,2.5,0,3.7c0,0.6-0.2,0.8-0.8,0.7
	c-0.7-0.1-1.4,0-2.1,0.1c-3.4,0.6-5.3,3-5.4,6.7s0,7.3,0,11c0,0.9-0.2,1.2-1.1,1.1c-1.2-0.1-2.5,0-3.7,0c-0.6,0-0.9-0.1-0.9-0.8
	c0-7.4,0-14.9,0-22.4c0-0.6,0.2-0.8,0.8-0.8c1.3,0,2.6,0.1,3.8,0c0.7,0,0.8,0.3,0.8,0.9S130,49.9,130,50.9z"/>
<path class="st7" d="M65.9,59.8c0-3.6,0-7.2,0-10.8c0-0.8,0.2-1,1-1c2.2,0,2.2,0,2.2,2.2c0,6.7,0,13.5,0,20.2c0,0.9-0.2,1.1-1.1,1.1
	c-2.1-0.1-2.1,0-2.1-2.1C65.9,66.2,65.9,63,65.9,59.8z"/>
<path class="st6" d="M69.8,40.5c0,1.3-1,2.3-2.3,2.3c0,0,0,0-0.1,0c-1.3,0-2.2-1.1-2.2-2.3s1.1-2.2,2.3-2.2
	C68.8,38.3,69.8,39.3,69.8,40.5C69.8,40.5,69.8,40.5,69.8,40.5z"/>
</svg>
